<?xml version="1.0" encoding="UTF-8" standalone="no"?>
<!-- Created with Inkscape (http://www.inkscape.org/) -->

<svg
   version="1.1"
   id="svg1"
   width="153.60001"
   height="263.67999"
   viewBox="0 0 153.60001 263.67999"
   sodipodi:docname="yeti.svg"
   inkscape:version="1.4.2 (2aeb623e1d, 2025-05-12)"
   xmlns:inkscape="http://www.inkscape.org/namespaces/inkscape"
   xmlns:sodipodi="http://sodipodi.sourceforge.net/DTD/sodipodi-0.dtd"
   xmlns="http://www.w3.org/2000/svg"
   xmlns:svg="http://www.w3.org/2000/svg">
  <defs
     id="defs1" />
  <sodipodi:namedview
     id="namedview1"
     pagecolor="#ffffff"
     bordercolor="#000000"
     borderopacity="0.25"
     inkscape:showpageshadow="2"
     inkscape:pageopacity="0.0"
     inkscape:pagecheckerboard="0"
     inkscape:deskcolor="#d1d1d1"
     inkscape:zoom="3.0453581"
     inkscape:cx="76.67407"
     inkscape:cy="131.84"
     inkscape:window-width="1874"
     inkscape:window-height="1011"
     inkscape:window-x="0"
     inkscape:window-y="0"
     inkscape:window-maximized="1"
     inkscape:current-layer="g1" />
  <g
     inkscape:groupmode="layer"
     inkscape:label="Image"
     id="g1">
    <path
       style="fill:#E78B48"
       d="m 108.09651,262.06321 -2.7835,-0.24754 -0.96737,-0.57144 c -0.53205,-0.31429 -1.10569,-0.96823 -1.27475,-1.45319 l -0.30738,-0.88176 0.31512,-1.14128 0.31512,-1.14128 1.18313,-0.74333 c 1.66749,-1.04765 4.56746,-2.0776 7.34732,-2.60947 4.41963,-0.84562 6.74445,-2.36222 9.19177,-5.99629 l 1.12403,-1.66909 v -1.15998 -1.15997 l -1.28,-2.73145 c -0.704,-1.5023 -1.28,-2.87344 -1.28,-3.04698 0,-0.17354 -0.252,-0.38547 -0.56,-0.47096 l -0.56,-0.15543 -1.08728,-2.75533 -1.08728,-2.75533 -0.51272,-0.18672 c -0.47601,-0.17334 -2.36215,-2.45216 -5.74413,-6.94 -0.76529,-1.01552 -1.56447,-1.8464 -1.77597,-1.8464 -0.42689,0 -5.06062,-4.93795 -7.20684,-7.68 l -1.377568,-1.76 -0.749823,-0.16 c -1.102151,-0.23518 -7.553481,-6.13683 -10.144338,-9.28 -3.099623,-3.76039 -5.46526,-6.41423 -7.944971,-8.91292 -2.432518,-2.45113 -3.605028,-4.3185 -4.219735,-6.72047 -0.238985,-0.93383 -0.634556,-1.8215 -0.879046,-1.9726 l -0.444529,-0.27474 -1.719733,1.90037 -1.719732,1.90036 h -0.650279 c -0.826456,0 -3.776023,2.14597 -3.776023,2.74726 0,0.24901 -0.18,0.45411 -0.4,0.45577 -0.22,0.002 0.248,0.38159 1.04,0.84427 0.792,0.46268 1.98,1.35454 2.64,1.98192 l 1.2,1.14067 v 0.67928 c 0,0.3736 0.374433,1.02837 0.832075,1.45505 1.542372,1.43803 3.33937,5.73578 2.39827,5.73578 h -0.289655 l 0.173625,2 c 0.09549,1.1 0.457813,2.56558 0.805153,3.25684 0.347341,0.69126 0.707278,2.09221 0.79986,3.11322 l 0.168332,1.85639 -0.491959,0.18878 -0.49196,0.18879 0.301447,1.09175 c 0.165796,0.60046 0.331455,2.25085 0.36813,3.66752 l 0.06668,2.57578 -0.42492,0.26475 -0.42492,0.26476 0.512499,2.96977 c 0.281875,1.63338 0.421408,3.25678 0.310075,3.60756 -0.111334,0.35078 -0.02348,1.48099 0.195221,2.51158 l 0.397646,1.87379 -0.375479,0.45243 -0.37548,0.45242 1.724572,1.87194 c 0.948514,1.02956 2.127314,2.51449 2.619557,3.29983 l 0.894985,1.4279 -0.524146,0.91328 -0.524147,0.91327 0.503309,0.97329 c 0.27682,0.53531 0.425938,1.28178 0.331374,1.65883 l -0.171936,0.68553 0.942931,1.40374 c 1.116428,1.66203 1.584634,3.18466 1.587075,5.16126 l 0.0018,1.44499 -0.592515,1.11501 c -0.325884,0.61325 -1.050981,1.42809 -1.611328,1.81075 l -1.018812,0.69574 -2.148673,0.21768 c -1.181769,0.11972 -3.228672,0.41861 -4.548672,0.6642 -1.32,0.24559 -4.09822,0.44655 -6.173823,0.44658 -2.075602,3e-5 -5.783619,0.22174 -8.240037,0.49268 l -4.466216,0.49264 -11.439963,0.17261 c -6.291979,0.0949 -12.239556,0.17867 -13.216838,0.18608 l -1.776874,0.0135 -1.332426,-0.67975 c -1.463347,-0.74655 -1.993825,-1.47853 -1.993825,-2.75118 l 0,-0.83558 0.804261,-0.80426 c 1.162332,-1.16233 4.557352,-2.65812 6.917646,-3.04781 1.120952,-0.18507 3.050608,-0.54233 4.288125,-0.79392 l 2.250032,-0.45744 2.709968,-1.44436 c 1.490483,-0.7944 3.861969,-1.99871 5.269969,-2.67624 2.98548,-1.43661 3.535674,-1.97055 3.819715,-3.70688 l 0.209392,-1.28 -1.294554,-2.61347 c -0.712004,-1.43741 -1.294553,-2.76226 -1.294553,-2.9441 0,-0.18184 -0.232587,-0.46079 -0.516861,-0.61987 l -0.516861,-0.28925 -0.436741,-2.68666 c -0.240208,-1.47765 -0.439621,-2.72265 -0.44314,-2.76665 -0.0035,-0.044 -0.217331,-0.08 -0.475138,-0.08 -0.663446,0 -0.9752,-0.73926 -1.619362,-3.84 l -0.565066,-2.72 -0.586304,-0.48 -0.586305,-0.48 -0.671149,-3.36 c -0.369132,-1.848 -1.080366,-4.296 -1.580519,-5.44 l -0.909369,-2.08 -0.394195,-2.71378 -0.394195,-2.71379 -1.449457,-2.83583 -1.449457,-2.83582 -0.769545,-0.29258 -0.769546,-0.29259 -0.491154,-1.25035 -0.491155,-1.25036 -0.598388,-0.15648 c -0.866468,-0.22659 -1.306464,-1.64361 -1.359527,-4.37842 l -0.04657,-2.4 -0.429524,-0.45238 -0.429523,-0.45238 0.215201,-0.98762 c 0.118361,-0.54319 0.27799,-2.10292 0.354731,-3.46607 l 0.139528,-2.47846 1.089621,-2.00154 c 1.138191,-2.09077 1.58905,-3.5328 1.901429,-6.08154 l 0.186294,-1.52 H 34.23388 33.600001 l 0,-1.06192 c 0,-2.41447 2.358752,-7.98699 5.897571,-13.93293 0.980336,-1.64717 1.78243,-3.34864 1.78243,-3.78104 0,-0.4324 0.171889,-1.10072 0.381977,-1.48515 0.210088,-0.38443 0.34663,-1.0626 0.303426,-1.50705 l -0.07855,-0.80808 0.736574,-1.09277 c 0.405116,-0.60102 1.528574,-1.74031 2.496574,-2.53175 l 1.76,-1.43899 -0.09825,-0.88355 -0.09824,-0.88354 1.298245,-0.85914 1.298246,-0.85914 0,-0.8547 v -0.85471 l 1.04,-0.972 c 0.572,-0.5346 1.544,-1.31558 2.16,-1.73551 0.616,-0.41994 1.838976,-1.4789 2.717724,-2.35326 l 1.597724,-1.58974 -0.106004,-0.62572 c -0.0583,-0.34414 0.07494,-0.9638 0.296092,-1.37703 0.49151,-0.91839 0.374159,-1.06183 -0.699897,-0.85545 l -0.834361,0.16033 -0.520462,1.09142 c -0.286254,0.60028 -0.729452,1.09142 -0.984885,1.09142 -0.255433,0 -0.869763,0.57395 -1.365178,1.27545 -0.495414,0.70149 -1.154332,1.3597 -1.464263,1.46267 -0.30993,0.10298 -0.773475,0.59326 -1.0301,1.08952 -0.256625,0.49626 -1.587046,2.07016 -2.956491,3.49756 l -2.489899,2.59527 -0.68202,-2.4e-4 -0.682019,-2.3e-4 -0.854266,1.12 -0.854266,1.12 h -0.634507 l -0.634507,0 -0.678018,1.14915 -0.678019,1.14916 -0.914022,-0.13415 -0.914022,-0.13415 -0.972963,2.05928 -0.972963,2.05928 -0.777337,-0.1486 -0.777337,-0.1486 -0.494244,0.75431 c -0.271835,0.41488 -0.748431,0.75432 -1.059104,0.75432 -0.310672,0 -1.119532,0.66356 -1.797466,1.47459 l -1.232606,1.47459 -1.110435,-0.1802 -1.110435,-0.1802 -2.444723,2.42669 -2.444722,2.42668 -2,0.90554 c -1.1,0.49805 -2,1.05055 -2,1.22779 0,0.17723 -0.443,0.8268 -0.984445,1.44347 l -0.984445,1.12122 -1.046144,0.19625 -1.046145,0.19626 0.14281,0.74706 c 0.07855,0.41089 -0.01534,1.48449 -0.208635,2.38579 l -0.351445,1.63873 0.479224,1.14695 c 0.263574,0.63082 0.479225,1.83341 0.479225,2.67241 l 0,1.52547 -0.598771,0.73945 -0.598771,0.73946 H 12.051164 10.899869 L 9.6899346,176.11399 C 7.6828198,174.49824 3.3695169,167.95066 2.3594873,164.98638 l -0.5162362,-1.51507 0.1541863,-1.60464 0.1541863,-1.60465 1.3293127,-2.53916 c 0.7311219,-1.39653 1.4813203,-3.24794 1.6671075,-4.11423 l 0.3377948,-1.57509 2.8546702,-2.97677 c 1.5700685,-1.63723 2.9375071,-3.22893 3.0387531,-3.53711 0.101245,-0.30819 0.47779,-0.71753 0.836765,-0.90965 l 0.652683,-0.3493 -0.354355,-0.35436 C 12.31946,143.71146 12.16,143.25188 12.16,142.88506 l 0,-0.66693 1.760001,-1.73813 c 0.968,-0.95598 1.76,-1.98461 1.76,-2.28585 0,-0.30124 0.324,-0.8111 0.72,-1.13302 0.396,-0.32192 0.908267,-0.82509 1.138371,-1.11815 l 0.418372,-0.53283 -0.382138,-0.6119 -0.382138,-0.6119 1.031728,-2.67536 1.031727,-2.67536 0.257444,-2.41782 0.257444,-2.41781 0.860615,-1.58587 c 0.473338,-0.87223 1.214592,-2.02423 1.647232,-2.56 1.655381,-2.04999 3.61775,-5.29812 3.952951,-6.54297 l 0.349509,-1.29797 1.243956,-0.99967 1.243955,-0.99967 -0.167292,-1.0309 -0.167291,-1.0309 1.072777,-0.90452 c 0.590028,-0.49748 1.535585,-1.09846 2.101237,-1.3355 0.565652,-0.23704 1.192134,-0.73681 1.392181,-1.1106 l 0.363723,-0.67962 -0.188645,-0.94322 -0.188644,-0.94322 0.935577,-2.937688 c 0.514568,-1.615727 1.158208,-3.733558 1.430311,-4.706293 0.272104,-0.972734 0.983277,-2.579914 1.580385,-3.57151 1.519292,-2.523034 1.746789,-7.303908 0.399176,-8.388708 l -0.436252,-0.351173 -0.196557,-3.463986 -0.196557,-3.463986 0.348067,-0.650369 0.348067,-0.650369 -0.349645,-0.349645 c -0.534873,-0.534873 -0.418016,-1.872218 0.283896,-3.248977 l 0.633542,-1.242655 -0.341846,-0.4119 -0.341846,-0.411899 0.216443,-0.98546 c 0.119044,-0.542003 0.69306,-1.609862 1.275592,-2.37302 1.469999,-1.925803 1.830131,-2.677066 1.612302,-3.363385 l -0.187728,-0.591477 0.796203,-0.946233 0.796203,-0.946233 -0.346774,-0.346774 c -0.190726,-0.190725 -0.26121,-0.681317 -0.156631,-1.090202 l 0.190142,-0.74343 2.650429,-1.793243 c 1.457735,-0.986283 3.389492,-2.036231 4.292793,-2.333217 1.49719,-0.492243 3.259393,-1.793539 2.428795,-1.793539 -0.191417,0 -0.440824,-0.292362 -0.554236,-0.649692 l -0.206204,-0.649692 0.98464,-1.121443 0.98464,-1.121443 0,-1.413808 c 0,-0.777595 -0.156936,-1.758246 -0.348747,-2.179226 l -0.348748,-0.765417 0.340578,-1.23347 0.340577,-1.23347 -0.503335,-0.556179 -0.503334,-0.556179 0.212579,-1.258246 0.212579,-1.258246 -0.537408,-1.848619 -0.537408,-1.848618 0.158489,-1.406112 c 0.08717,-0.773361 0.361006,-1.652267 0.608525,-1.953125 l 0.450036,-0.547015 -0.05464,-3.870867 -0.05464,-3.870867 -0.33885,-0.633146 -0.338849,-0.633145 0.121564,-2.649589 c 0.06686,-1.457274 0.200205,-2.72823 0.296321,-2.824346 0.09612,-0.09612 -0.05604,-0.343522 -0.338127,-0.549789 l -0.512886,-0.375031 0.219641,-1.000016 c 0.120802,-0.550009 0.622691,-1.50719 1.115308,-2.127068 L 52.7149,9.6190836 52.56328,8.8259312 52.411659,8.0327789 53.292558,7.2163893 c 0.484494,-0.4490142 1.050932,-0.8163895 1.25875,-0.8163895 h 0.377851 L 54.790414,5.4546717 54.651669,4.5093436 55.485836,4.2999812 c 0.458791,-0.1151494 1.194166,-0.1190082 1.634166,-0.00858 l 0.8,0.2007872 0,-0.7669143 c 0,-0.4218029 0.22974,-0.9575817 0.510534,-1.1906195 l 0.510533,-0.4237052 0.849467,0.4779525 0.849466,0.4779524 0.872953,-1.3734295 0.872952,-1.37342961 0.842058,0 0.842057,0 L 63.939269,1.44 c -0.126192,1.0809241 0.131494,1.4621633 0.540734,0.7999999 0.108774,-0.176 0.465602,-0.32 0.792952,-0.32 0.32735,0 1.027821,-0.2483007 1.556603,-0.5517794 l 0.96142,-0.55177944 0.64158,0.58062194 0.64158,0.580622 0.646564,-0.2052113 0.646563,-0.2052113 0.656369,0.6563687 c 0.361003,0.3610029 1.020994,0.6563688 1.466647,0.6563688 0.445653,0 1.309653,0.2086522 1.92,0.4636715 l 1.109722,0.4636714 0,0.4963286 v 0.4963285 l 0.910404,0 0.910404,0 0.558439,0.6170676 0.558438,0.6170676 -0.205126,0.6462943 -0.205126,0.6462942 0.97327,0.5032973 c 1.101385,0.5695485 2.070999,1.8650977 1.855874,2.4797251 -0.07898,0.225639 0.246649,0.914254 0.723613,1.530254 1.277359,1.649714 1.624047,2.436157 1.586088,3.59795 -0.10598,3.243642 1.270388,7.732662 3.160264,10.307188 l 1.173458,1.59857 v 0.930161 0.93016 l 1.120001,0.603412 1.12,0.603412 1.379684,-0.204713 1.379685,-0.204713 0.172858,0.661008 0.172857,0.661008 1.007458,0.201152 c 0.554102,0.110633 1.475458,0.346026 2.047458,0.523094 l 1.04,0.321943 0,0.918832 v 0.918831 l 1.68,0.475202 c 0.924,0.26136 3.098126,0.703519 4.831376,0.982574 3.8092,0.613281 9.16862,4.174509 9.16862,6.092364 0,0.229548 1.368,1.545469 3.04,2.92427 l 3.04,2.50691 v 0.935487 l 0,0.935486 0.8,1.048855 c 0.44,0.576869 0.8,1.24448 0.8,1.483578 0,0.239098 0.648,1.070688 1.44,1.847978 0.792,0.777289 1.44,1.581778 1.44,1.787754 0,0.205976 0.81238,1.068536 1.80528,1.9168 0.99291,0.848265 2.58263,2.484715 3.53273,3.636557 l 1.72744,2.094258 -0.0851,0.649311 c -0.0468,0.357122 0.36837,1.386285 0.92261,2.287031 1.21612,1.976443 1.77411,3.56852 2.49293,7.112938 l 0.54446,2.68465 -0.3928,0.733953 -0.3928,0.733953 1.00262,1.77655 c 0.55145,0.977102 1.00263,2.015899 1.00263,2.308439 0,0.292539 0.49443,1.135288 1.09875,1.872775 1.43775,1.754589 2.8274,3.992969 4.07576,6.56503 l 1.00953,2.079999 0.0649,2.08 c 0.0357,1.144 0.17695,2.772074 0.31393,3.617941 l 0.24906,1.537941 -0.66585,0.174122 -0.66584,0.174122 0.29984,0.847937 c 0.16492,0.46637 0.68443,1.58007 1.15448,2.4749 l 0.85463,1.62696 -0.20454,0.53304 -0.20455,0.53304 -0.73193,0 h -0.73192 l -0.3686,0.88 -0.3686,0.88 -0.0208,3.28478 c -0.0115,1.80663 -0.1569,3.53905 -0.32322,3.84984 -0.16633,0.31078 -0.40415,1.64063 -0.5285,2.95522 -0.12435,1.31458 -0.40827,2.60616 -0.63094,2.87016 -0.22267,0.264 -0.63954,2.33424 -0.92638,4.60054 -0.55932,4.41921 -0.63213,4.67946 -1.30917,4.67946 -0.7551,0 -0.79823,0.46161 -0.31729,3.39601 0.25636,1.56419 0.46863,3.9497 0.4717,5.30113 l 0.006,2.45714 -0.40689,0.42286 -0.40688,0.42286 -0.0453,1.76 c -0.0249,0.968 -0.14579,2.79965 -0.26868,4.07033 l -0.22343,2.31033 -0.44444,0.36885 c -0.24444,0.20287 -0.44443,0.82017 -0.44443,1.37178 0,0.55161 -0.16177,1.50598 -0.35949,2.12082 -0.19771,0.61484 -0.4569,3.42189 -0.57596,6.23789 l -0.21649,5.12 -0.57499,1.08396 c -0.31624,0.59618 -0.94208,1.42418 -1.39076,1.84 l -0.81577,0.75604 h -1.05041 c -1.20656,0 -2.04985,-0.69366 -2.07018,-1.70286 l -0.014,-0.69714 -0.43552,1.22118 c -1.01998,2.85993 -3.85118,4.27254 -5.64763,2.81786 l -0.74215,-0.60095 0.0335,-1.87905 0.0335,-1.87904 -0.39298,1.28 c -0.49745,1.62026 -1.28311,3.13438 -1.88607,3.63478 l -0.46772,0.38818 0.47106,1.80389 0.47106,1.80389 -0.39153,0.73159 -0.39154,0.73159 0.21222,2.54466 0.21222,2.54467 -0.36934,0.12311 -0.36933,0.12311 0.36752,2.11047 c 0.20214,1.16076 0.27863,2.34213 0.16998,2.62526 l -0.19755,0.51479 h 0.5154 c 0.28347,0 1.05274,0.288 1.7095,0.64 0.65675,0.352 1.43718,0.64 1.73428,0.64 0.29711,0 0.95691,0.35065 1.46624,0.77923 0.50933,0.42857 1.34838,0.8776 1.86455,0.99785 1.40814,0.32804 3.48589,1.6054 4.42314,2.71925 0.45764,0.54388 1.66282,1.61335 2.67817,2.3766 3.23045,2.42838 7.04487,9.12707 5.1972,9.12707 -0.49308,0 -0.39047,0.67738 0.50768,3.35152 l 0.82768,2.46432 -0.19425,0.77395 -0.19425,0.77395 0.58594,1.19813 c 0.32226,0.65897 0.79186,1.52213 1.04354,1.91813 l 0.45761,0.72 -0.38388,0.61469 -0.38387,0.61468 1.9069,2.46759 1.9069,2.46758 v 0.73107 c 0,0.40208 -0.14035,0.77906 -0.31188,0.83773 l -0.31188,0.10666 0.92756,1.83689 0.92756,1.83689 -0.0337,1.36311 c -0.0186,0.74971 0.27643,2.37334 0.65551,3.60806 l 0.68925,2.24495 1.60112,1.91505 c 0.88062,1.05328 2.03522,2.63505 2.5658,3.51505 l 0.96468,1.6 0.003,1.988 0.003,1.988 -0.6626,1.77093 -0.66259,1.77093 -1.53856,1.68343 -1.53856,1.68344 -3.07745,1.69992 c -1.69259,0.93496 -3.83407,2.39019 -4.75884,3.23383 -4.90446,4.47422 -8.5556,5.84197 -12.8814,4.82548 l -1.28001,-0.30078 -2.13717,0.68404 -2.13718,0.68405 -2.18475,-0.41223 -2.18475,-0.41223 -1.27807,0.35481 c -1.40598,0.39032 -3.06015,0.39524 -7.26157,0.0216 z m 6.7055,-0.81555 2.04288,-0.51234 1.39926,0.35234 c 1.96363,0.49444 2.99401,0.44235 5.01692,-0.25363 l 1.76126,-0.60596 1.40884,0.27202 c 0.77486,0.14962 2.20084,0.27819 3.16884,0.28571 l 1.76,0.0137 1.94322,-0.91931 1.94323,-0.91931 2.53678,-2.23511 c 1.39522,-1.22931 3.89466,-2.99928 5.55432,-3.93327 3.8621,-2.17343 5.219,-3.41945 6.45267,-5.92538 l 0.99642,-2.02402 0.017,-1.86155 0.017,-1.86155 -0.49995,-0.96 c -0.27497,-0.528 -1.23684,-1.80007 -2.13748,-2.82683 -2.07759,-2.36851 -2.70889,-3.62173 -3.58594,-7.11863 l -0.70678,-2.81802 0.31726,-0.10575 0.31725,-0.10575 -1.06248,-2.11104 c -1.17978,-2.3441 -1.28664,-2.89813 -0.5884,-3.05051 l 0.47408,-0.10347 -2.07408,-2.68336 c -1.958,-2.53319 -2.475,-3.68618 -1.76219,-3.92997 l 0.31188,-0.10667 -0.97333,-1.92 -0.97333,-1.92 0.14465,-0.96 0.14465,-0.96 -0.7632,-2.36084 c -0.82681,-2.55759 -0.97093,-4.07658 -0.40469,-4.26533 l 0.35851,-0.1195 -1.02355,-2.02764 c -1.16694,-2.31168 -3.31095,-4.74469 -5.27743,-5.98878 -0.73924,-0.46768 -1.47727,-1.1534 -1.64006,-1.52382 -0.36319,-0.8264 -3.51945,-2.75409 -4.50936,-2.75409 -0.39693,0 -0.9793,-0.26847 -1.29416,-0.5966 -0.80509,-0.83904 -1.83041,-1.3234 -2.80147,-1.3234 h -0.83108 l -0.18085,-0.47129 c -0.0995,-0.25921 -0.66008,-0.5612 -1.24579,-0.67108 l -1.06493,-0.19978 0.0506,-1.48892 c 0.0278,-0.81891 -0.0717,-2.31693 -0.22105,-3.32893 l -0.2716,-1.84 h 0.50895 0.50895 l -0.31208,-0.82083 c -0.17164,-0.45145 -0.31208,-1.73545 -0.31208,-2.85333 v -2.0325 l 0.35401,-0.118 0.354,-0.118 -0.35222,-1.26867 c -0.51552,-1.85686 -0.43631,-2.8566 0.27751,-3.5026 0.9785,-0.88553 1.91118,-3.77529 2.42023,-7.49872 0.60038,-4.39149 0.71219,-4.82734 1.23834,-4.82734 0.97645,0 1.05632,1.74435 0.3218,7.02777 l -0.50634,3.64208 0.33948,0.74507 0.33947,0.74508 h 0.66276 c 0.36451,0 1.08618,-0.21897 1.60372,-0.4866 l 0.94097,-0.48659 0.70486,-1.35341 0.70486,-1.3534 0.13582,-4.25624 0.13581,-4.25623 0.51443,0.0991 c 0.28293,0.0545 0.7028,0.45779 0.93304,0.89623 l 0.41862,0.79717 -0.20516,3.85212 -0.20515,3.85212 0.52935,0.43933 0.52935,0.43932 0.86522,-0.62808 c 0.47588,-0.34544 1.22367,-1.34059 1.66178,-2.21145 l 0.79655,-1.58336 0.0642,-4.38489 c 0.0353,-2.41168 0.21608,-4.93168 0.40166,-5.6 0.18559,-0.66831 0.33824,-1.89911 0.33922,-2.73511 l 0.002,-1.52 h 0.48 0.48 v -1.90112 c 0,-1.04561 0.144,-1.99011 0.32,-2.09888 0.176,-0.10878 0.32,-1.16848 0.32,-2.35489 V 140.608 l 0.35825,-0.35826 0.35825,-0.35825 -0.19109,-3.14575 c -0.1051,-1.73016 -0.2849,-4.49802 -0.39955,-6.1508 l -0.20846,-3.00505 0.77933,0.19559 0.77932,0.1956 0.38506,-3.11054 c 0.21178,-1.7108 0.38367,-3.65054 0.38197,-4.31054 l -0.003,-1.2 h 0.43813 0.43813 l 0.19834,-1.2 c 0.1091,-0.66 0.19994,-1.8552 0.20187,-2.656 0.002,-0.8008 0.18353,-1.63602 0.40353,-1.85603 l 0.4,-0.40004 v -3.63722 c 0,-2.00048 0.108,-3.74527 0.24,-3.87731 0.132,-0.13204 0.24,-0.64807 0.24,-1.14674 V 103.68 h 0.44081 c 0.24245,0 0.62297,0.21948 0.8456,0.48773 0.8096,0.9755 0.67292,0.15071 -0.30379,-1.83328 -0.5497,-1.11659 -1.09018,-2.589309 -1.20109,-3.272716 l -0.20163,-1.242558 0.72593,0.189837 0.72594,0.189836 -0.24322,-1.019426 c -0.13376,-0.560684 -0.2699,-2.027426 -0.30251,-3.259426 l -0.0593,-2.24 -0.98725,-1.939146 c -0.54299,-1.06653 -1.21501,-2.128162 -1.49337,-2.359182 -0.27836,-0.23102 -0.50611,-0.609797 -0.50611,-0.841727 0,-0.23193 -0.72958,-1.37357 -1.62128,-2.536979 -0.89171,-1.163408 -1.56024,-2.288015 -1.48563,-2.499126 0.0746,-0.211112 -0.12984,-0.763297 -0.45434,-1.227079 -1.46202,-2.089593 -2.24632,-4.75676 -1.39875,-4.75676 0.58636,0 0.60225,0.344594 -0.1534,-3.327889 -0.66147,-3.21482 -1.0791,-4.249478 -2.63078,-6.517641 -0.5138,-0.751041 -0.88955,-1.632033 -0.835,-1.95776 l 0.0992,-0.592229 -1.48823,-1.882241 c -0.81852,-1.035232 -2.28753,-2.53024 -3.26446,-3.32224 -0.97693,-0.792 -1.78323,-1.674908 -1.79178,-1.962019 -0.009,-0.287111 -0.49927,-0.890983 -1.0905,-1.341937 -0.59123,-0.450955 -1.32361,-1.343886 -1.6275,-1.984292 -0.30389,-0.640405 -0.90016,-1.676628 -1.32503,-2.302717 -0.42488,-0.62609 -0.77251,-1.467454 -0.77251,-1.869699 v -0.731355 l -2.8,-2.363366 c -1.54,-1.299852 -2.944,-2.649888 -3.12,-3.000082 -0.176,-0.350193 -1.328,-1.657209 -2.56,-2.90448 l -2.24,-2.267765 -1.76,-0.357984 c -0.968,-0.196891 -2.84,-0.493576 -4.16,-0.6593 -1.319996,-0.165723 -3.155996,-0.616094 -4.079996,-1.000823 l -1.68,-0.699508 v -0.570669 c 0,-0.313868 0.18,-0.634373 0.4,-0.712234 0.481548,-0.170424 -1.84993,-0.867462 -2.909959,-0.869984 l -0.749958,-0.0018 -0.167364,-0.64 -0.167363,-0.64 -1.515356,0 -1.515355,0 -1.087323,-0.736844 -1.087323,-0.736845 V 28.599466 27.632622 L 85.630809,26.413164 C 84.385817,24.77926 82.947483,21.281618 82.577098,18.987359 82.411292,17.960311 82.178828,16.724 82.060513,16.24 l -0.215119,-0.88 0.363808,0 0.363809,0 -0.617198,-1.2 C 81.616355,13.5 80.893428,12.537059 80.34931,12.02013 79.374966,11.094477 79.053694,10.24 79.680003,10.24 c 0.769776,0 0.19758,-0.7425359 -1.28,-1.66105 C 76.765694,7.5630079 76.514767,7.1332354 77.172112,6.4758912 L 77.54422,6.1037826 76.67128,5.7718912 C 76.191162,5.589351 75.519714,5.4399998 75.179171,5.4399998 l -0.619168,0 V 4.9712587 c 0,-0.6752977 -1.03542,-1.1312588 -2.568921,-1.1312588 l -1.330996,0 L 70.48799,3.1819015 70.315893,2.523803 69.797948,2.7430522 c -0.28487,0.1205871 -0.830029,0.2872405 -1.211464,0.3703409 L 67.892966,3.2644848 67.786484,2.5602981 67.680003,1.8561114 66.790594,2.5586818 c -0.489174,0.3864137 -1.083627,0.6280415 -1.321006,0.5369506 -0.237379,-0.091091 -0.557145,-0.051464 -0.710592,0.088059 -0.153446,0.1395234 -0.674993,0.347014 -1.158993,0.4610902 l -0.880001,0.2074113 0,-0.6252647 c 0,-0.3438957 0.143565,-1.0028685 0.319033,-1.4643842 L 63.358068,0.9234248 63.03295,1.1243586 c -0.178815,0.1105135 -0.684805,0.9107429 -1.124423,1.7782875 -0.893101,1.7624493 -1.217285,1.8873639 -2.2879,0.8815733 l -0.740625,-0.6957805 0,1.1868022 0,1.1868021 -1.68,-0.2107745 -1.68,-0.2107744 0.4,0.4237527 c 0.634935,0.6726388 0.471871,1.148338 -0.536866,1.5661703 -0.515276,0.2134344 -1.185594,0.6629045 -1.489596,0.9988225 l -0.55273,0.61076 0.369596,0 c 0.662074,0 0.389557,1.1497914 -0.460808,1.9442192 -0.745015,0.696008 -1.729596,2.221548 -1.729596,2.679889 0,0.09674 0.234,0.175892 0.52,0.175892 l 0.52,0 -0.228362,1.04 c -0.1256,0.572 -0.283712,2.156 -0.351362,3.52 l -0.122998,2.479999 h 0.487251 0.487251 l -0.200991,2 c -0.110546,1.1 -0.262645,2.19425 -0.337998,2.431665 -0.07535,0.237416 0.03009,1.338543 0.234324,2.44695 l 0.371331,2.015285 -0.689223,0.876205 -0.689223,0.876205 0.0038,1.156845 c 0.0021,0.636265 0.192352,1.876845 0.422808,2.756845 0.230455,0.88 0.357621,2.212 0.28259,2.96 l -0.136419,1.36 h 0.513612 c 0.608428,0 0.639139,0.498078 0.15039,2.439076 l -0.363221,1.442482 0.363221,0.363221 c 0.924592,0.924591 0.343381,4.106942 -1.02414,5.60756 l -0.667385,0.73234 0.707373,0.184982 0.707373,0.184983 0,0.586392 c 0,0.777945 -1.698646,2.011342 -3.68,2.67207 -1.675202,0.558634 -6.262758,3.577246 -6.48464,4.266893 l -0.128694,0.4 h 0.826667 0.826667 l -0.01214,0.4 c -0.0067,0.22 -0.565333,0.782282 -1.241452,1.249515 l -1.229309,0.849515 0.143509,0.750717 0.143509,0.750718 -0.844838,1.439768 c -0.464661,0.791872 -1.194586,1.929062 -1.622056,2.52709 -0.88667,1.240445 -0.99508,1.952677 -0.297218,1.952677 0.693245,0 0.60174,0.433983 -0.504981,2.394985 -0.97539,1.728296 -1.008068,2.405015 -0.116134,2.405015 0.607272,0 0.585795,0.180381 -0.219555,1.844013 l -0.68067,1.406076 0.406964,0.760421 0.406965,0.76042 -0.192405,1.624558 c -0.212274,1.792323 -0.04048,2.564512 0.570556,2.564512 l 0.402268,0 0.203496,1.484662 c 0.111923,0.816565 0.203496,2.47478 0.203496,3.684923 l 0,2.20026 -1.103005,1.675077 c -0.606653,0.921293 -1.402631,2.683077 -1.768841,3.915077 -0.36621,1.232 -1.019214,3.32 -1.45112,4.64 l -0.785283,2.400003 0.194988,1.1938 0.194988,1.1938 -0.50081,0.76434 c -0.275446,0.42038 -1.308206,1.21999 -2.295024,1.77692 -1.854999,1.0469 -2.473319,1.83392 -1.778279,2.26348 l 0.400873,0.24776 -0.215808,0.67995 c -0.118694,0.37397 -0.321964,0.67995 -0.45171,0.67995 -0.129747,0 -0.75475,0.47524 -1.388896,1.0561 l -1.152993,1.0561 -0.357957,1.32935 c -0.196876,0.73114 -0.693909,1.73189 -1.104518,2.2239 -0.410609,0.492 -1.002791,1.39855 -1.315959,2.01455 -0.313168,0.616 -0.981696,1.59331 -1.485617,2.17181 -0.503922,0.5785 -1.255494,1.7305 -1.670161,2.56 l -0.753941,1.50819 -0.188128,2.10328 -0.188127,2.10328 -0.977337,2.67797 C 18.07268,134.66096 18.117817,134.4 18.720001,134.4 h 0.48 l 0,0.6238 c 0,0.34309 -0.648,1.30978 -1.44,2.1482 -0.792,0.83843 -1.44,1.77373 -1.44,2.07845 0,0.30472 -0.71993,1.17403 -1.599843,1.93179 -1.605807,1.38289 -2.014656,2.17776 -1.120157,2.17776 0.800214,0 0.542139,0.77422 -0.64,1.92 C 12.344,145.87705 11.84,146.53654 11.84,146.74553 c 0,0.209 -0.612,0.92457 -1.36,1.59015 -0.7479996,0.66559 -2.0344668,1.99684 -2.8588155,2.95834 l -1.4988158,1.74817 -0.2164705,1.28127 c -0.1190588,0.70471 -0.8485917,2.48974 -1.6211843,3.96674 l -1.4047138,2.68546 0.00703,1.51217 0.00703,1.51217 0.6239542,1.3748 c 1.78574,3.93465 5.5409033,9.27859 7.271684,10.34827 l 1.04061,0.64313 0.596286,-0.18925 c 0.327957,-0.10409 0.758696,-0.54571 0.957196,-0.98137 l 0.36091,-0.79211 -0.19742,-1.04174 c -0.108581,-0.57295 -0.331921,-1.30442 -0.496311,-1.62547 l -0.298891,-0.58374 0.22392,-3.1584 0.22392,-3.15841 1.310913,-0.41786 L 15.82174,164 l 0.916466,-1.36921 0.916466,-1.36921 1.978006,-0.89687 1.978006,-0.89687 1.290021,-1.46554 c 2.429541,-2.76011 5.259296,-4.69832 5.259296,-3.6023 0,0.83319 0.530208,0.52651 1.642626,-0.95011 l 1.077374,-1.4301 0.693179,-0.01 0.693178,-0.01 0.424937,-0.96 0.424938,-0.96 h 0.535217 c 0.29437,0 0.619218,0.18 0.721885,0.4 l 0.186666,0.4 0.208716,-0.46615 c 0.114793,-0.25638 0.658562,-1.33514 1.208375,-2.39723 l 0.99966,-1.93109 0.551625,-0.10623 0.551625,-0.10623 0.003,0.74346 0.003,0.74347 0.831917,-1.38819 0.831917,-1.38818 0.606429,0.15858 0.606429,0.15859 1.029881,-1.43409 1.029882,-1.43408 0.733722,0.14026 0.733723,0.14026 0.955023,-1.08771 c 0.525262,-0.59824 0.955023,-1.2267 0.955023,-1.39658 0,-0.16987 0.18641,-0.30886 0.414244,-0.30886 0.227835,0 0.983835,-0.75421 1.68,-1.67602 1.506233,-1.99443 4.436895,-5.04398 4.847339,-5.04398 0.159988,0 0.613161,-0.66334 1.00705,-1.47408 l 0.716164,-1.47408 0.628936,0.16447 0.628937,0.16447 0.209126,-0.85039 c 0.11502,-0.46772 0.469302,-1.46239 0.787294,-2.21039 l 0.578166,-1.36 0.491372,0 h 0.491372 v 1.05234 c 0,0.57878 -0.272477,1.58678 -0.605504,2.24 L 57.668994,130.24 h 0.445504 c 0.577349,0 0.571937,0.98517 -0.0098,1.77883 l -0.455275,0.62117 0.166816,0.8377 0.166816,0.83771 -1.471541,1.23006 c -0.809348,0.67653 -1.472801,1.37956 -1.474341,1.56229 -0.0015,0.18273 -0.846284,0.87562 -1.877212,1.53976 -1.030927,0.66414 -2.129541,1.48944 -2.441365,1.834 l -0.566952,0.62647 0.391713,0.47199 c 0.510091,0.61462 0.308088,0.89711 -1.424004,1.99139 -1.496139,0.94521 -1.794997,1.38863 -0.935917,1.38863 h 0.503463 l -0.103463,0.48095 c -0.05691,0.26452 -1.092288,1.23652 -2.300851,2.16 l -2.197388,1.67905 -0.682612,1.23827 -0.682613,1.23827 0.4,0.14839 c 0.591131,0.21931 0.486559,0.87754 -0.244524,1.53916 l -0.644523,0.58329 0.180894,0.56994 0.180893,0.56995 -1.893512,3.13636 c -3.290827,5.45084 -5.725046,10.71039 -6.260259,13.52637 l -0.21097,1.11 0.39,-0.39 c 0.2145,-0.2145 0.593793,-0.39 0.842872,-0.39 h 0.452871 L 35.703141,174 c -0.414599,3.62226 -0.897846,5.39331 -2.073733,7.59999 l -1.193639,2.24 0.137127,0.61996 c 0.07542,0.34098 -0.04772,1.70061 -0.273655,3.02141 l -0.410782,2.40145 0.375771,0.12526 0.375771,0.12526 0.03786,2.29333 c 0.02082,1.26133 0.13182,2.72533 0.24666,3.25333 l 0.208799,0.96 0.71334,-0.10011 0.71334,-0.10011 v 0.51286 c 0,0.28207 0.283175,1.06793 0.629277,1.74634 l 0.629276,1.23349 0.531895,-0.0462 0.531896,-0.0462 1.563238,3.04 1.563239,3.04 0.480735,2.88 c 0.264405,1.584 0.897635,3.888 1.407178,5.12 0.509543,1.232 1.174957,3.536 1.478696,5.12 l 0.552253,2.88 0.570065,0.48 0.570064,0.48 0.730456,3.28 0.730456,3.28 h 0.537649 0.53765 l 0.334261,1.36 c 0.183843,0.748 0.433554,2.04577 0.554913,2.88394 0.121359,0.83816 0.337746,1.5963 0.480862,1.68475 0.143115,0.0884 0.935189,1.53 1.760164,3.20345 l 1.499954,3.04264 0.02098,1.51261 c 0.01154,0.83194 -0.185152,1.92492 -0.437088,2.42884 l -0.458067,0.91623 -4.96,2.57203 c -6.339158,3.2872 -7.318424,3.65488 -11.2843,4.2369 l -3.275701,0.48073 -2.582778,1.26609 -2.582779,1.26608 -0.377293,0.82807 -0.377293,0.82807 0.802728,0.74394 c 0.4415,0.40917 1.452329,0.92582 2.246286,1.14812 l 1.443559,0.40417 1.833785,-0.24653 c 1.008582,-0.1356 6.657786,-0.28364 12.553786,-0.329 l 10.72,-0.0824 3.091931,-0.37247 c 1.700562,-0.20486 5.732563,-0.50026 8.960001,-0.65645 10.195126,-0.49338 13.521973,-1.18533 14.675929,-3.05247 l 0.63214,-1.02283 v -1.65498 -1.65497 l -0.686171,-1.34726 c -0.377394,-0.74098 -1.025394,-1.79284 -1.44,-2.33745 -0.817273,-1.07355 -0.943669,-1.61318 -0.418821,-1.78813 l 0.335007,-0.11167 -0.495007,-1.18472 c -0.626873,-1.50032 -0.629089,-2.36535 -0.0067,-2.6042 l 0.488335,-0.18739 -0.855857,-1.36684 c -0.470722,-0.75177 -1.698473,-2.27212 -2.728336,-3.37855 l -1.872477,-2.01171 v -0.62829 -0.6283 h 0.514691 0.51469 l -0.257295,-0.88 c -0.141512,-0.484 -0.277307,-1.888 -0.301768,-3.12 -0.02446,-1.232 -0.225603,-3.37882 -0.446984,-4.77072 l -0.402511,-2.53072 0.509589,-0.28518 0.509588,-0.28518 -0.0056,-1.3441 c -0.005,-1.20734 -0.559046,-4.22443 -1.151642,-6.27125 l -0.222107,-0.76715 0.857792,0.21529 0.857792,0.21529 -0.194534,-0.88814 c -0.106993,-0.48847 -0.452811,-1.60814 -0.768484,-2.48814 -0.315672,-0.88 -0.739645,-2.66912 -0.94216,-3.97582 l -0.368211,-2.37583 0.355581,-0.21976 0.35558,-0.21976 -0.970071,-1.9217 c -0.533539,-1.05694 -1.425459,-2.30488 -1.982044,-2.77322 l -1.011974,-0.85152 0.163605,-0.62563 0.163604,-0.62562 -1.058037,-0.92897 c -0.58192,-0.51093 -1.791784,-1.32832 -2.688586,-1.81642 l -1.630548,-0.88746 v -0.55182 c 0,-0.3035 0.288,-0.62713 0.64,-0.71919 0.352,-0.0921 0.64,-0.39684 0.64,-0.67732 0,-0.28047 0.11808,-0.50996 0.2624,-0.50996 0.14432,0 0.851211,-0.504 1.570869,-1.12 l 1.308468,-1.12 0.749131,0.007 0.749132,0.007 1.76,-1.94036 1.76,-1.94036 1.008726,0.20676 1.008727,0.20677 0.208337,1.38929 c 0.114585,0.76411 0.642362,2.25785 1.172836,3.31942 l 0.9645,1.93013 2.298437,2.36361 c 2.269366,2.33371 5.866501,6.39957 9.245329,10.45005 0.954302,1.144 2.013647,2.23636 2.354101,2.42747 0.340454,0.1911 1.695467,1.3834 3.01114,2.64954 1.315673,1.26614 2.788981,2.40578 3.274019,2.53254 l 0.881885,0.23045 1.6954,2.12852 c 2.43301,3.05458 6.23892,6.99148 6.75884,6.99148 0.24427,0 0.69837,0.396 1.00913,0.88 1.0978,1.70982 6.23918,8.01559 6.67039,8.18106 0.24045,0.0923 0.89818,1.29528 1.46164,2.67335 0.56345,1.37808 1.28823,2.73379 1.61062,3.01269 0.3224,0.2789 1.24762,1.95009 2.05606,3.71377 l 1.46988,3.20667 v 1.17898 c 0,1.50229 -0.85476,3.16929 -2.86154,5.58067 l -1.59173,1.91267 -1.69336,0.82757 c -0.93135,0.45517 -2.98937,1.11023 -4.57337,1.4557 -3.36064,0.73295 -5.1832,1.34167 -6.89123,2.30163 l -1.23119,0.69197 -0.36558,0.88261 -0.36559,0.8826 0.37255,0.69612 c 0.52863,0.98775 2.21618,1.59583 4.55077,1.6398 1.67428,0.0315 2.5575,0.15399 4.06983,0.56428 0.0768,0.0208 1.05886,-0.19269 2.18245,-0.47447 z M 112.32,133.09653 v -4.50346 l 0.55163,0.10623 0.55162,0.10624 1.07596,2.07723 1.07596,2.07723 -0.20353,1.28 -0.20353,1.28 -1.00683,1.04 c -0.55375,0.572 -1.19457,1.04 -1.42405,1.04 H 112.32 Z m 2.24,0.77774 c 0,-0.81633 -0.80277,-2.99427 -1.10367,-2.99427 -0.097,0 -0.17153,1.188 -0.16568,2.64 l 0.0106,2.64 0.62935,-0.75545 c 0.34615,-0.4155 0.62935,-1.10413 0.62935,-1.53028 z m 13.3386,25.42573 -0.16807,-0.42 -0.0253,0.61333 c -0.0139,0.33733 0.0617,0.52633 0.16807,0.42 0.10633,-0.10633 0.1177,-0.38233 0.0253,-0.61333 z m -6.08,-0.32 -0.16807,-0.42 -0.0253,0.61333 c -0.0139,0.33733 0.0617,0.52633 0.16807,0.42 0.10633,-0.10633 0.1177,-0.38233 0.0253,-0.61333 z"
       id="path1" />
  </g>
</svg>
